# xmcd CD database file
#
# Track frame offsets:
#	150
#	36387
#	56792
#	83360
#	91667
#	121455
#	143900
#	163890
#	186365
#	216230
#
# Disc length: 3113 seconds
#
# Revision: 0
# Processed by: cddbd v1.5.1PL0 Copyright (c) Steve Scherf et al.
# Submitted via: CDex 1.51
#
DISCID=8c0c270a
DTITLE=Fabrizio Mandolini - La Spiga
DYEAR=2004
DGENRE=Jazz
TTITLE0=Northern Lights
TTITLE1=Senor Figuera
TTITLE2=Two Pages To Tell A Story
TTITLE3=A Rush of Italian Blood In My Head
TTITLE4=La Spiga
TTITLE5=Impro
TTITLE6=Mothers
TTITLE7=Gone With The Winter
TTITLE8=Silent Mentor
TTITLE9=The Ship Form Nyhavn
EXTD=YEAR: 2004
EXTT0=
EXTT1=
EXTT2=
EXTT3=
EXTT4=
EXTT5=
EXTT6=
EXTT7=
EXTT8=
EXTT9=
PLAYORDER=
